<svg width="125" height="137" viewBox="0 0 125 137" fill="none" xmlns="http://www.w3.org/2000/svg">
<path d="M63.0716 129.241L48.523 130.754C42.2871 131.402 36.0677 129.384 31.4006 125.198C28.0647 122.206 25.7123 118.274 24.6528 113.92L24.5685 113.573C24.1287 111.766 23.9064 109.912 23.9064 108.052L23.9064 100.785L23.9064 81.9102" stroke="#a1a1aa" stroke-width="10" stroke-linecap="round"/>
<path d="M57.9258 15.8472L64.3316 14.6589C79.4707 11.8505 94.2097 21.2067 98.1107 36.1017L98.5392 37.8156C100.344 45.0347 101.257 52.4479 101.257 59.8892" stroke="#a1a1aa" stroke-width="10" stroke-linecap="round"/>
<path d="M21.246 47.6204L21.246 44.6676C21.246 40.0397 22.6847 35.5263 25.3631 31.7522L26.3504 30.361C27.5474 28.6743 29.0924 27.2641 30.881 26.2255L31.9192 25.6227C35.6443 23.4598 40.2282 23.3985 44.0098 25.4612C46.7658 26.9645 48.8442 29.4628 49.821 32.4463L73.9347 106.098C75.9078 112.124 81.5308 116.2 87.872 116.2C95.0019 116.2 101.099 111.072 102.32 104.048L105.24 87.2582" stroke="#a1a1aa" stroke-width="10" stroke-linecap="round"/>
<path d="M92.3422 73.9832L94.8057 74.692C103.803 77.2805 113.458 73.9625 118.964 66.3901" stroke="#a1a1aa" stroke-width="10" stroke-linecap="round"/>
<path d="M43.0598 72.7096L39.2827 69.9861C28.7857 62.4173 14.3259 63.6924 5.31556 72.9814" stroke="#a1a1aa" stroke-width="10" stroke-linecap="round"/>
</svg>
